<?xml version="1.0" encoding="utf-8"?>
<!-- Generator: Adobe Illustrator 16.0.0, SVG Export Plug-In . SVG Version: 6.00 Build 0)  -->
<!DOCTYPE svg PUBLIC "-//W3C//DTD SVG 1.1//EN" "http://www.w3.org/Graphics/SVG/1.1/DTD/svg11.dtd">
<svg version="1.1" id="comment-img" xmlns="http://www.w3.org/2000/svg" xmlns:xlink="http://www.w3.org/1999/xlink" x="0px" y="0px"
	 width="50px" height="50px" viewBox="0 0 50 50" enable-background="new 0 0 50 50" xml:space="preserve">
<path fill="#FFFFFF" d="M9.633,24.965c0-3.661,1.439-7.041,3.86-9.811C6.376,16.278,1,21.377,1,27.504
	c0,3.295,1.567,6.286,4.113,8.53c-0.63,1.2-1.578,2.834-2.353,3.414c0,0,2.402-0.83,4.227-2.012
	c2.616,1.657,5.894,2.653,9.463,2.653c1.291,0,2.537-0.144,3.735-0.386C13.889,36.789,9.633,31.286,9.633,24.965z"/>
<path fill="#FFFFFF" d="M49,24.969c0-8.35-8.31-15.12-18.56-15.12c-10.251,0-18.561,6.77-18.561,15.12S20.189,40.09,30.44,40.09
	c3.908,0,7.529-0.99,10.521-2.67c0.952,1.316,2.887,3.08,6.277,2.67c0,0-2.125-2.42-2.518-5.467C47.393,32.004,49,28.64,49,24.969z
	 M20.856,27c-1.104,0-2-0.896-2-2s0.896-2,2-2s2,0.896,2,2S21.961,27,20.856,27z M30.44,27c-1.105,0-2-0.896-2-2s0.895-2,2-2
	c1.104,0,2,0.896,2,2S31.544,27,30.44,27z M40.023,27c-1.104,0-2-0.896-2-2s0.896-2,2-2s2,0.896,2,2S41.128,27,40.023,27z"/>
</svg>
