<?xml version="1.0" encoding="utf-8"?>
<!-- Generator: Adobe Illustrator 16.0.0, SVG Export Plug-In . SVG Version: 6.00 Build 0)  -->
<!DOCTYPE svg PUBLIC "-//W3C//DTD SVG 1.1//EN" "http://www.w3.org/Graphics/SVG/1.1/DTD/svg11.dtd">
<svg version="1.1" id="construction-img" xmlns="http://www.w3.org/2000/svg" xmlns:xlink="http://www.w3.org/1999/xlink" x="0px" y="0px"
	 width="50px" height="50px" viewBox="0 0 50 50" enable-background="new 0 0 50 50" xml:space="preserve">
<path fill-rule="evenodd" clip-rule="evenodd" fill="#FFFFFF" d="M38.915,5.851c-4.561-1.111-12.185,2.163-19.4,8.455l-1.637-0.912
	l-4.649,4.648l0.911,1.639c-6.292,7.216-9.565,14.84-8.455,19.4c2.805-4.795,6.962-10.271,12.104-15.751l1.385,0.658l4.649-4.649
	l-0.66-1.383C28.644,12.813,34.12,8.655,38.915,5.851z"/>
<path fill-rule="evenodd" clip-rule="evenodd" fill="#FFFFFF" d="M13.134,11.687l-1.614,1.614c-0.479,0.479-0.479,1.255,0,1.734
	l0.867,0.867l0.867-0.867l1.614-1.614l0.867-0.867l-0.867-0.867C14.39,11.207,13.614,11.207,13.134,11.687z"/>
<path fill-rule="evenodd" clip-rule="evenodd" fill="#FFFFFF" d="M21.703,25.218l20.06,20.059c0.479,0.479,1.254,0.479,1.733,0
	l1.615-1.615c0.479-0.479,0.479-1.255,0-1.734l-20.06-20.059L21.703,25.218z"/>
</svg>
