<?xml version="1.0" encoding="utf-8"?>
<!-- Generator: Adobe Illustrator 16.0.0, SVG Export Plug-In . SVG Version: 6.00 Build 0)  -->
<!DOCTYPE svg PUBLIC "-//W3C//DTD SVG 1.1//EN" "http://www.w3.org/Graphics/SVG/1.1/DTD/svg11.dtd">
<svg version="1.1" id="design-img" xmlns="http://www.w3.org/2000/svg" xmlns:xlink="http://www.w3.org/1999/xlink" x="0px" y="0px"
	 width="50px" height="50px" viewBox="0 0 50 50" enable-background="new 0 0 50 50" xml:space="preserve">
<polyline fill="#FFFFFF" points="31.6,10.224 34.768,5 45.17,15.355 39.924,18.507 "/>
<path fill="#FFFFFF" d="M30.787,11.197l-9.34,1.015L7.948,41.29l13.46-13.398c-0.644-1.125-0.501-2.577,0.457-3.54
	c0.004-0.005,0.008-0.009,0.013-0.014c1.163-1.159,3.044-1.159,4.208,0c1.152,1.147,1.16,3.013,0.012,4.169
	c-0.004,0.004-0.01,0.009-0.012,0.014c-0.971,0.966-2.436,1.114-3.572,0.47L9.085,42.357l29.012-13.585l1.014-9.29L30.787,11.197z"
	/>
<rect x="4.83" y="44" fill="#FFFFFF" width="39.481" height="2"/>
</svg>
