<?xml version="1.0" encoding="utf-8"?>
<!-- Generator: Adobe Illustrator 16.0.0, SVG Export Plug-In . SVG Version: 6.00 Build 0)  -->
<!DOCTYPE svg PUBLIC "-//W3C//DTD SVG 1.1//EN" "http://www.w3.org/Graphics/SVG/1.1/DTD/svg11.dtd">
<svg version="1.1" id="logo-img" xmlns="http://www.w3.org/2000/svg" xmlns:xlink="http://www.w3.org/1999/xlink" x="0px" y="0px"
	 width="145px" height="60px" viewBox="0 0 145 60" enable-background="new 0 0 145 60" xml:space="preserve">
<polygon fill="#525151" points="1.65,56.68 1.65,48.175 3.008,48.175 3.008,51.668 8.348,51.668 8.348,48.175 9.707,48.175 
	9.707,56.68 8.348,56.68 8.348,52.671 3.008,52.671 3.008,56.68 "/>
<path fill="#525151" d="M16.904,54.695l1.303,0.134c-0.206,0.63-0.587,1.119-1.143,1.469c-0.556,0.348-1.266,0.522-2.13,0.522
	c-1.089,0-1.952-0.278-2.588-0.834c-0.638-0.555-0.957-1.332-0.957-2.334c0-1.037,0.322-1.842,0.966-2.414
	c0.645-0.573,1.48-0.858,2.509-0.858c0.996,0,1.808,0.281,2.439,0.842c0.63,0.56,0.946,1.349,0.946,2.365
	c0,0.063-0.002,0.156-0.007,0.279h-5.549c0.046,0.676,0.278,1.195,0.693,1.555c0.416,0.36,0.934,0.539,1.555,0.539
	c0.462,0,0.857-0.1,1.185-0.3C16.452,55.457,16.712,55.137,16.904,54.695 M12.762,53.007h4.156
	c-0.057-0.518-0.214-0.905-0.477-1.165c-0.402-0.401-0.922-0.604-1.563-0.604c-0.58,0-1.066,0.161-1.461,0.482
	C13.023,52.04,12.805,52.471,12.762,53.007"/>
<path fill="#525151" d="M19.777,56.68v-6.16h1.134v0.934c0.291-0.437,0.558-0.725,0.803-0.864c0.246-0.14,0.516-0.209,0.81-0.209
	c0.425,0,0.857,0.112,1.296,0.337l-0.434,0.969c-0.309-0.152-0.617-0.227-0.925-0.227c-0.276,0-0.523,0.068-0.743,0.206
	c-0.221,0.138-0.375,0.328-0.47,0.571c-0.14,0.371-0.21,0.776-0.21,1.219v3.225H19.777z"/>
<path fill="#525151" d="M28.024,54.266l1.226-0.138c0.033,0.648,0.18,1.095,0.442,1.333c0.261,0.24,0.623,0.36,1.085,0.36
	c0.341,0,0.635-0.064,0.883-0.194c0.247-0.129,0.418-0.305,0.511-0.526c0.093-0.223,0.14-0.578,0.14-1.066v-5.859h1.36v5.797
	c0,0.711-0.104,1.262-0.312,1.653c-0.208,0.391-0.539,0.688-0.988,0.893c-0.45,0.205-0.979,0.308-1.586,0.308
	c-0.902,0-1.593-0.214-2.072-0.645C28.235,55.752,28.005,55.113,28.024,54.266"/>
<path fill="#525151" d="M35.739,48.175H37v1.2h-1.261V48.175z M35.739,50.52H37v6.16h-1.261V50.52z"/>
<path fill="#525151" d="M43.796,56.68v-0.904c-0.58,0.696-1.366,1.045-2.361,1.045c-0.439,0-0.849-0.07-1.229-0.209
	c-0.381-0.14-0.664-0.314-0.849-0.525c-0.184-0.211-0.313-0.469-0.389-0.775c-0.051-0.204-0.077-0.529-0.077-0.975V50.52h1.261
	v3.417c0,0.545,0.026,0.912,0.077,1.102c0.08,0.275,0.247,0.489,0.504,0.646c0.257,0.158,0.575,0.236,0.953,0.236
	c0.379,0,0.733-0.079,1.065-0.24c0.332-0.16,0.567-0.38,0.705-0.656c0.137-0.276,0.207-0.677,0.207-1.203V50.52h1.261v6.16H43.796z"
	/>
<rect x="51.279" y="48.175" fill="#525151" width="1.36" height="8.504"/>
<path fill="#525151" d="M54.874,56.68v-6.16h1.136v0.876c0.545-0.677,1.336-1.016,2.367-1.016c0.449,0,0.861,0.066,1.237,0.2
	c0.376,0.134,0.658,0.309,0.844,0.525c0.188,0.216,0.318,0.473,0.393,0.771c0.046,0.194,0.07,0.533,0.07,1.016v3.788h-1.261v-3.747
	c0-0.426-0.05-0.743-0.147-0.954c-0.099-0.211-0.272-0.38-0.523-0.506c-0.249-0.125-0.542-0.188-0.879-0.188
	c-0.537,0-1,0.142-1.391,0.424c-0.39,0.282-0.585,0.817-0.585,1.606v3.364H54.874z"/>
<path fill="#525151" d="M65.61,55.745l0.181,0.923c-0.354,0.063-0.672,0.094-0.953,0.094c-0.458,0-0.812-0.061-1.064-0.18
	c-0.252-0.12-0.43-0.277-0.532-0.474c-0.104-0.195-0.155-0.605-0.155-1.232v-3.545h-0.924V50.52h0.924v-1.526l1.254-0.627v2.153
	h1.27v0.812h-1.27v3.604c0,0.297,0.022,0.488,0.068,0.574c0.043,0.085,0.116,0.153,0.216,0.202c0.101,0.051,0.245,0.076,0.432,0.076
	C65.196,55.787,65.381,55.773,65.61,55.745"/>
<path fill="#525151" d="M71.937,54.695l1.303,0.134c-0.206,0.63-0.586,1.119-1.143,1.469c-0.555,0.348-1.265,0.522-2.129,0.522
	c-1.089,0-1.952-0.278-2.59-0.834c-0.638-0.555-0.957-1.332-0.957-2.334c0-1.037,0.323-1.842,0.967-2.414
	c0.646-0.573,1.481-0.858,2.508-0.858c0.995,0,1.809,0.281,2.438,0.842c0.631,0.56,0.946,1.349,0.946,2.365
	c0,0.063-0.002,0.156-0.007,0.279h-5.55c0.047,0.676,0.278,1.195,0.694,1.555c0.416,0.36,0.934,0.539,1.556,0.539
	c0.461,0,0.857-0.1,1.184-0.3C71.485,55.457,71.745,55.137,71.937,54.695 M67.796,53.007h4.155
	c-0.056-0.518-0.215-0.905-0.477-1.165c-0.402-0.401-0.923-0.604-1.563-0.604c-0.58,0-1.066,0.161-1.46,0.482
	C68.056,52.04,67.837,52.471,67.796,53.007"/>
<path fill="#525151" d="M74.81,56.68v-6.16h1.136v0.934c0.288-0.437,0.557-0.725,0.802-0.864s0.514-0.209,0.809-0.209
	c0.425,0,0.857,0.112,1.297,0.337l-0.435,0.969c-0.309-0.152-0.617-0.227-0.926-0.227c-0.275,0-0.522,0.068-0.742,0.206
	c-0.221,0.138-0.377,0.328-0.47,0.571c-0.141,0.371-0.211,0.776-0.211,1.219v3.225H74.81z"/>
<path fill="#525151" d="M79.608,48.175h1.261v1.2h-1.261V48.175z M79.608,50.52h1.261v6.16h-1.261V50.52z"/>
<path fill="#525151" d="M82.32,53.6c0-1.141,0.383-1.986,1.149-2.536c0.639-0.456,1.42-0.684,2.34-0.684
	c1.023,0,1.859,0.277,2.51,0.833c0.648,0.555,0.973,1.321,0.973,2.3c0,0.793-0.143,1.417-0.43,1.871
	c-0.288,0.454-0.706,0.808-1.255,1.058c-0.55,0.252-1.147,0.379-1.798,0.379c-1.041,0-1.883-0.278-2.526-0.831
	C82.641,55.437,82.32,54.641,82.32,53.6 M83.616,53.6c0,0.789,0.207,1.379,0.625,1.773c0.415,0.392,0.938,0.587,1.568,0.587
	c0.627,0,1.146-0.196,1.563-0.59c0.416-0.396,0.624-0.997,0.624-1.806c0-0.762-0.21-1.339-0.628-1.731
	c-0.417-0.392-0.937-0.589-1.559-0.589c-0.63,0-1.153,0.196-1.568,0.586C83.823,52.221,83.616,52.811,83.616,53.6"/>
<path fill="#525151" d="M90.757,56.68v-6.16h1.135v0.934c0.29-0.437,0.557-0.725,0.803-0.864c0.245-0.14,0.516-0.209,0.811-0.209
	c0.424,0,0.856,0.112,1.295,0.337l-0.435,0.969c-0.309-0.152-0.616-0.227-0.925-0.227c-0.276,0-0.522,0.068-0.743,0.206
	c-0.219,0.138-0.376,0.328-0.469,0.571c-0.142,0.371-0.21,0.776-0.21,1.219v3.225H90.757z"/>
<path fill="#525151" d="M99.698,56.68v-8.505h3.538c0.799,0,1.408,0.04,1.828,0.123c0.589,0.111,1.092,0.314,1.507,0.608
	c0.543,0.38,0.947,0.863,1.216,1.453c0.269,0.591,0.402,1.264,0.402,2.021c0,0.646-0.09,1.219-0.272,1.718s-0.416,0.911-0.701,1.239
	c-0.285,0.326-0.597,0.583-0.936,0.771c-0.338,0.188-0.747,0.33-1.226,0.427c-0.479,0.098-1.029,0.145-1.65,0.145H99.698z
	 M101.058,55.676h2.192c0.679,0,1.209-0.051,1.595-0.156c0.384-0.104,0.691-0.251,0.92-0.44c0.323-0.267,0.573-0.626,0.754-1.077
	c0.18-0.449,0.27-0.997,0.27-1.638c0-0.891-0.176-1.573-0.528-2.051c-0.354-0.479-0.782-0.798-1.286-0.961
	c-0.363-0.115-0.951-0.173-1.758-0.173h-2.158V55.676z"/>
<path fill="#525151" d="M114.994,54.695l1.304,0.134c-0.206,0.63-0.587,1.119-1.142,1.469c-0.557,0.348-1.267,0.522-2.131,0.522
	c-1.089,0-1.952-0.278-2.589-0.834c-0.638-0.555-0.957-1.332-0.957-2.334c0-1.037,0.323-1.842,0.967-2.414
	c0.645-0.573,1.481-0.858,2.509-0.858c0.995,0,1.808,0.281,2.439,0.842c0.63,0.56,0.944,1.349,0.944,2.365
	c0,0.063-0.002,0.156-0.007,0.279h-5.549c0.046,0.676,0.277,1.195,0.693,1.555c0.416,0.36,0.935,0.539,1.556,0.539
	c0.461,0,0.857-0.1,1.184-0.3C114.543,55.457,114.803,55.137,114.994,54.695 M110.853,53.007h4.155
	c-0.057-0.518-0.215-0.905-0.477-1.165c-0.4-0.401-0.922-0.604-1.563-0.604c-0.58,0-1.065,0.161-1.46,0.482
	C111.113,52.04,110.895,52.471,110.853,53.007"/>
<path fill="#525151" d="M117.377,54.841l1.246-0.161c0.071,0.414,0.265,0.729,0.586,0.951c0.32,0.221,0.767,0.329,1.341,0.329
	c0.58,0,1.009-0.097,1.289-0.293c0.281-0.194,0.421-0.425,0.421-0.687c0-0.236-0.124-0.422-0.37-0.557
	c-0.173-0.094-0.604-0.211-1.291-0.354c-0.924-0.193-1.564-0.36-1.922-0.502c-0.358-0.141-0.629-0.337-0.813-0.585
	c-0.186-0.25-0.277-0.525-0.277-0.828c0-0.274,0.076-0.528,0.229-0.762c0.151-0.233,0.358-0.429,0.619-0.584
	c0.196-0.119,0.464-0.221,0.804-0.304c0.337-0.083,0.702-0.125,1.089-0.125c0.585,0,1.097,0.069,1.538,0.209
	s0.769,0.327,0.978,0.566c0.21,0.237,0.355,0.556,0.434,0.953l-1.232,0.141c-0.056-0.318-0.219-0.565-0.488-0.743
	c-0.269-0.179-0.646-0.268-1.138-0.268c-0.579,0-0.992,0.079-1.24,0.237c-0.247,0.158-0.37,0.345-0.37,0.557
	c0,0.136,0.05,0.257,0.153,0.367c0.103,0.111,0.264,0.203,0.483,0.278c0.125,0.038,0.498,0.127,1.113,0.268
	c0.894,0.195,1.515,0.356,1.868,0.483c0.352,0.126,0.63,0.309,0.83,0.548c0.202,0.239,0.301,0.538,0.301,0.894
	c0,0.349-0.121,0.676-0.366,0.983c-0.246,0.307-0.601,0.544-1.063,0.714c-0.462,0.168-0.985,0.253-1.57,0.253
	c-0.967,0-1.703-0.169-2.209-0.499C117.841,55.987,117.517,55.495,117.377,54.841"/>
<path fill="#525151" d="M125.063,48.175h1.262v1.2h-1.262V48.175z M125.063,50.52h1.262v6.16h-1.262V50.52z"/>
<path fill="#525151" d="M128.013,57.19l1.228,0.151c0.051,0.313,0.192,0.541,0.426,0.685c0.313,0.192,0.74,0.29,1.283,0.29
	c0.583,0,1.034-0.098,1.353-0.29c0.316-0.193,0.532-0.464,0.644-0.813c0.066-0.213,0.096-0.659,0.092-1.34
	c-0.552,0.537-1.238,0.806-2.061,0.806c-1.023,0-1.814-0.306-2.375-0.916s-0.841-1.344-0.841-2.199c0-0.587,0.127-1.131,0.385-1.627
	c0.256-0.496,0.631-0.881,1.117-1.151c0.489-0.271,1.063-0.406,1.722-0.406c0.878,0,1.602,0.294,2.172,0.882V50.52h1.163v5.325
	c0,0.959-0.118,1.64-0.354,2.039c-0.236,0.4-0.61,0.716-1.122,0.948c-0.511,0.232-1.141,0.348-1.888,0.348
	c-0.888,0-1.604-0.164-2.15-0.495C128.258,58.354,127.994,57.855,128.013,57.19 M129.057,53.489c0,0.809,0.193,1.398,0.582,1.769
	c0.388,0.373,0.872,0.558,1.457,0.558c0.579,0,1.065-0.185,1.458-0.555c0.392-0.368,0.589-0.947,0.589-1.736
	c0-0.755-0.202-1.322-0.606-1.706c-0.404-0.382-0.892-0.574-1.462-0.574c-0.56,0-1.036,0.189-1.428,0.565
	C129.252,52.187,129.057,52.746,129.057,53.489"/>
<path fill="#525151" d="M136.225,56.68v-6.16h1.135v0.876c0.547-0.677,1.337-1.016,2.37-1.016c0.448,0,0.86,0.066,1.236,0.2
	c0.374,0.134,0.656,0.309,0.844,0.525c0.187,0.216,0.318,0.473,0.392,0.771c0.047,0.194,0.071,0.533,0.071,1.016v3.788h-1.262
	v-3.747c0-0.426-0.049-0.743-0.146-0.954c-0.099-0.211-0.272-0.38-0.522-0.506c-0.251-0.125-0.544-0.188-0.88-0.188
	c-0.536,0-1,0.142-1.391,0.424s-0.585,0.817-0.585,1.606v3.364H136.225z"/>
<path fill="#666564" d="M119.079,8.197l0.072,0.178l-0.072,0.22h-10.371c0.64,0.796,1.327,1.548,2.064,2.256
	c0.738,0.708,1.498,1.342,2.286,1.902c1.047,0.767,2.067,1.438,3.059,2.013c0.991,0.575,2.034,1.121,3.134,1.637
	c0.146,0.073,0.221,0.169,0.221,0.287c0,0.119-0.074,0.222-0.221,0.31c-1.033,0.324-1.844,0.789-2.433,1.393
	c-1.492-0.944-3.065-2.256-4.72-3.937c-1.293-1.43-2.506-3.044-3.638-4.843v11.435c-0.457,0.383-0.933,0.575-1.425,0.575
	l-0.466-0.067v-11.08c-0.722,0.943-1.409,1.776-2.065,2.499c-0.655,0.723-1.261,1.349-1.818,1.88
	c-1.719,1.43-3.735,2.61-6.045,3.539l-0.319,0.111c-0.033,0-0.059-0.011-0.074-0.033c-0.017-0.022-0.032-0.048-0.049-0.078
	c0.017-0.044,0.032-0.093,0.049-0.144c0.016-0.052,0.05-0.107,0.099-0.166c0.771-0.516,1.572-1.113,2.407-1.791
	c0.837-0.678,1.755-1.474,2.754-2.389c1.474-1.533,2.752-3.303,3.833-5.309h-8.552c-0.313-0.118-0.467-0.243-0.467-0.376l0.024-0.11
	h10.224V4.171c-3.096,0.236-5.496,0.354-7.2,0.354l-0.516-0.021c-0.133,0-0.234-0.015-0.309-0.045
	C98.472,4.43,98.41,4.4,98.362,4.371c0.033-0.044,0.064-0.074,0.098-0.088c0.115-0.089,0.229-0.147,0.345-0.178
	c2.292-0.25,4.563-0.615,6.807-1.094c2.245-0.479,4.611-1.102,7.103-1.87c0.049-0.043,0.155-0.066,0.319-0.066
	c0.196,0,0.394,0.044,0.59,0.133l1.99,1.106c0.098,0.104,0.146,0.236,0.146,0.397c0,0.207-0.237,0.31-0.712,0.31h-0.1
	c-1.915,0.192-4.078,0.479-6.487,0.862v4.225h6.783l1.402-1.482l0.121-0.043l0.271,0.043L119.079,8.197z"/>
<path fill="#666564" d="M129.351,5.72c-2.015,2.375-4.275,4.372-6.783,5.994c-0.065,0.015-0.171,0.052-0.32,0.11
	c-0.146,0.06-0.244,0.089-0.294,0.089l-0.073-0.044c0.05-0.059,0.081-0.104,0.099-0.133c0.113-0.147,0.204-0.251,0.269-0.31
	c0.804-0.796,1.562-1.6,2.273-2.411c0.714-0.811,1.38-1.636,2.004-2.477c1.163-1.504,2.007-3.273,2.531-5.308
	c0.064-0.044,0.127-0.073,0.186-0.089c0.056-0.014,0.101-0.029,0.134-0.043l0.171,0.043l2.286,0.885
	c0.163,0.104,0.246,0.222,0.246,0.354c0,0.207-0.205,0.406-0.613,0.597c-0.428,0.103-0.788,0.391-1.082,0.863l-0.837,1.349h5.433
	l1.056-0.996l0.122-0.043l0.296,0.043l1.671,1.062c0.082,0.118,0.123,0.243,0.123,0.376c0,0.088-0.041,0.192-0.123,0.31
	c-0.655,0.457-1.163,1.011-1.523,1.659l-1.793,4.114c0.834,1.755,1.711,3.03,2.629,3.827c2.065,1.799,4.251,3.207,6.562,4.224
	c0.032,0,0.065,0.051,0.099,0.155c0,0.088-0.075,0.199-0.222,0.332c-0.294,0.191-0.605,0.402-0.935,0.631
	c-0.327,0.228-0.638,0.468-0.933,0.718c-1.523-0.781-2.975-1.917-4.351-3.406c-0.737-0.855-1.404-1.722-2.003-2.599
	c-0.598-0.877-1.151-1.795-1.658-2.753c-1.033,1.46-2.081,2.735-3.146,3.827c-1.982,1.769-4.242,3.163-6.782,4.179
	c-0.933,0.325-1.507,0.486-1.719,0.486c-0.034,0-0.063-0.011-0.088-0.032c-0.023-0.022-0.044-0.041-0.061-0.056
	c0-0.132,0.581-0.575,1.745-1.327c3.129-1.873,5.496-3.782,7.102-5.729c1.982-2.846,3.293-5.669,3.933-8.471H129.351z"/>
<path fill="#666564" d="M103.486,27.109c0.13-0.059,0.262-0.088,0.394-0.088l0.294,0.022l1.105,1.084l0.074,0.287
	c0,0.133-0.049,0.214-0.147,0.243h-8.7c-0.081-0.044-0.163-0.11-0.245-0.199c-0.018-0.015-0.042-0.044-0.073-0.089
	c0.049-0.043,0.081-0.073,0.098-0.088c0.081-0.059,0.165-0.096,0.245-0.111h5.948L103.486,27.109z M102.479,33.148
	c0.017-0.016,0.045-0.026,0.085-0.034c0.041-0.007,0.087-0.019,0.136-0.033l0.369,0.067l1.031,0.95l0.1,0.354
	c0,0.133-0.066,0.215-0.198,0.244h-6.93c-0.131-0.074-0.237-0.155-0.319-0.244c-0.017-0.015-0.033-0.035-0.049-0.066
	c0-0.117,0.122-0.198,0.368-0.242h4.228L102.479,33.148z M98.719,43.033v0.665c-0.378,0.294-0.821,0.441-1.328,0.441l-0.565-0.044
	v-7.122c0.591,0.119,1.181,0.348,1.77,0.688h3.416l0.836-0.82c0.114-0.073,0.237-0.11,0.369-0.11c0.179,0,0.294,0.015,0.343,0.044
	l1.254,0.752c0.114,0.119,0.172,0.236,0.172,0.354c0,0.132-0.065,0.236-0.196,0.309c-0.427,0.385-0.639,0.842-0.639,1.372
	l0.024,0.088v3.517c-0.426,0.413-0.854,0.619-1.277,0.619c-0.23,0-0.468-0.074-0.714-0.22v-0.532H98.719z M102.725,30.25
	c0.163-0.073,0.261-0.11,0.295-0.11c0.08,0,0.205,0.037,0.367,0.11l0.983,0.885c0.066,0.03,0.103,0.066,0.111,0.11
	c0.008,0.045,0.02,0.103,0.035,0.177c0,0.119-0.071,0.199-0.221,0.244h-7.053c-0.081-0.059-0.144-0.106-0.185-0.145
	c-0.04-0.036-0.077-0.076-0.11-0.122c0-0.116,0.098-0.19,0.295-0.22h4.473L102.725,30.25z M102.847,24.478l0.294-0.067l0.32,0.067
	l1.179,1.062l0.025,0.154c0,0.162-0.123,0.244-0.369,0.244h-6.757c-0.296-0.118-0.442-0.214-0.442-0.288
	c0.065-0.029,0.113-0.051,0.146-0.066c0.147-0.059,0.262-0.096,0.346-0.111h4.201L102.847,24.478z M102.183,38.124h-3.464v4.401
	h3.464V38.124z M116.952,34.63c0.181,0.117,0.271,0.243,0.271,0.375c0,0.104-0.086,0.219-0.258,0.344s-0.422,0.239-0.75,0.343
	c-0.081,0-0.393,0.487-0.933,1.46c-0.181,0.397-0.493,0.877-0.935,1.437c-0.442,0.562-0.976,1.166-1.597,1.814
	c0.835,0.53,1.764,1.01,2.788,1.438s2.078,0.781,3.158,1.062c0.394,0.089,0.59,0.184,0.59,0.288
	c-0.032,0.044-0.058,0.072-0.073,0.088c-0.066,0.073-0.132,0.125-0.197,0.154c-0.459,0.207-0.808,0.377-1.044,0.509
	c-0.238,0.133-0.447,0.281-0.628,0.443c-0.13,0.088-0.277,0.132-0.442,0.132c-0.246,0-0.515-0.088-0.811-0.266
	c-0.606-0.279-1.281-0.659-2.027-1.139c-0.745-0.479-1.545-1.044-2.396-1.691c-2.261,1.518-4.719,2.528-7.373,3.03
	c-0.146,0-0.258-0.02-0.331-0.056c-0.074-0.037-0.136-0.086-0.185-0.145c0-0.103,0.131-0.214,0.394-0.331
	c2.966-1.193,5.152-2.388,6.562-3.583c-1.459-1.696-2.457-3.53-2.999-5.508h-1.13c-0.099-0.06-0.168-0.106-0.209-0.143
	c-0.041-0.038-0.077-0.086-0.11-0.145c0-0.089,0.14-0.155,0.418-0.199h7.372l0.812-0.796c0.016-0.016,0.081-0.029,0.196-0.044
	c0.18,0.015,0.295,0.028,0.345,0.044L116.952,34.63z M114.814,30.117l-0.025,0.089c0,0.472,0.304,0.708,0.909,0.708h0.689
	c0.54,0,0.86-0.464,0.957-1.393l0.05-1.283c0.017-0.044,0.041-0.081,0.073-0.11c0.033-0.029,0.058-0.052,0.075-0.066
	c0.064,0.044,0.118,0.092,0.159,0.144c0.04,0.051,0.069,0.106,0.087,0.165c0.261,1.15,0.762,1.888,1.498,2.212
	c0.099,0.162,0.147,0.339,0.147,0.53c0,0.31-0.164,0.627-0.491,0.952c-0.296,0.131-0.639,0.236-1.033,0.309
	c-0.393,0.075-0.884,0.11-1.474,0.11h-2.064c-1.031-0.088-1.548-0.597-1.548-1.526l0.049-0.086v-5.066h-3.146v1.57
	c-0.133,1.225-0.418,2.204-0.861,2.941c-0.835,0.944-1.834,1.711-2.996,2.3l-0.37,0.067l-0.073-0.045l0.099-0.155
	c1.277-1.488,2.015-3.169,2.211-5.042v-2.897l1.991,0.796h2.653l1.205-0.995l0.123-0.022c0.049,0.029,0.113,0.055,0.196,0.077
	c0.081,0.022,0.147,0.049,0.196,0.078l1.181,0.774c0.081,0.118,0.122,0.229,0.122,0.332c-0.05,0.132-0.09,0.207-0.122,0.221
	c-0.329,0.295-0.493,1.091-0.493,2.389l0.025,0.31V30.117z M114.594,34.828H108.4l0.27,0.929c0.459,0.856,0.935,1.612,1.426,2.268
	c0.491,0.656,0.983,1.183,1.475,1.582c0.557-0.59,1.078-1.264,1.561-2.024C113.615,36.822,114.102,35.905,114.594,34.828"/>
<path fill="#666564" d="M121.867,28.569c-0.262-0.014-0.393-0.081-0.393-0.199l0.098-0.199h6.193l1.326-1.216l0.197-0.021
	l0.295,0.021l1.277,1.173c0.082,0.059,0.181,0.154,0.295,0.287c0.018,0.015,0.033,0.037,0.05,0.066
	c-0.116,0.06-0.206,0.089-0.271,0.089H121.867z M123.759,42.969v0.95c-0.359,0.354-0.721,0.531-1.08,0.531
	c-0.132,0-0.259-0.027-0.382-0.077c-0.122-0.053-0.267-0.123-0.43-0.211v-6.879c0.082-0.25,0.237-0.376,0.468-0.376
	c0.132,0,0.286,0.044,0.466,0.134l1.277,0.751h3.688l0.713-0.509c0.196-0.088,0.342-0.132,0.441-0.132
	c0.065,0,0.213,0.044,0.442,0.132l1.229,0.775v0.131c0,0.149-0.075,0.281-0.223,0.398c-0.294,0.148-0.44,0.487-0.44,1.019v3.804
	c-0.394,0.427-0.796,0.642-1.205,0.642c-0.213,0-0.492-0.088-0.836-0.267v-0.816H123.759z M129.978,25.34
	c0.081,0.074,0.146,0.163,0.196,0.266c0,0.015,0.008,0.038,0.025,0.067c-0.067,0.059-0.124,0.088-0.173,0.088h-7.323
	c-0.115-0.045-0.213-0.104-0.295-0.177c-0.017-0.015-0.05-0.051-0.099-0.111l0.099-0.133h4.915l1.057-1.062l0.221-0.044
	c0.115,0,0.262,0.059,0.443,0.177L129.978,25.34z M122.703,34.895c-0.229-0.059-0.345-0.134-0.345-0.221l0.05-0.198h4.595
	l1.327-1.106l0.148-0.045l0.295,0.045l1.326,1.106l0.1,0.265c0,0.104-0.075,0.154-0.222,0.154H122.703z M122.875,31.578
	c-0.115-0.015-0.196-0.037-0.245-0.067c-0.05-0.029-0.1-0.065-0.147-0.111l0.098-0.221h4.3l1.156-1.216l0.294-0.022l0.295,0.022
	l1.304,1.172c0.032,0.044,0.057,0.1,0.073,0.166c0.017,0.065,0.032,0.129,0.048,0.188l-0.099,0.09H122.875z M127.888,38.189h-4.129
	v4.291h4.129V38.189z M142.215,30.516l0.173-0.022l0.294,0.022l1.599,1.282c0.064,0.089,0.113,0.163,0.146,0.223
	c0.032,0.058,0.057,0.117,0.073,0.176c0,0.09-0.073,0.132-0.22,0.132h-5.653v11.988c-0.393,0.369-0.811,0.553-1.253,0.553
	c-0.247,0-0.509-0.051-0.786-0.154V32.328h-5.309c-0.229-0.132-0.344-0.228-0.344-0.287l0.05-0.11h5.603v-7.475
	c0-0.311,0.099-0.465,0.295-0.465l2.015,0.487c0.115,0.088,0.172,0.207,0.172,0.354c0,0.162-0.098,0.347-0.294,0.553
	c-0.116,0.191-0.173,0.612-0.173,1.261l0.024,0.375v4.91h2.481L142.215,30.516z"/>
<g>
	<path fill="#060001" d="M51.477,9.171l34.515-0.064c1.146,0,2.225-0.975,2.225-2.257c0-1.282-0.966-2.32-2.11-2.32H51.477
		c-1.146,0-2.415,1.039-2.415,2.32C49.062,8.132,50.331,9.171,51.477,9.171z"/>
	<path fill="#060001" d="M92.873,12.412V3.886c0-0.154-0.017-0.303-0.045-0.449c0.016-0.109,0.032-0.218,0.032-0.331
		c0-0.611-0.258-1.208-0.684-1.636c-0.854-0.868-2.431-0.868-3.285,0c-0.429,0.428-0.672,1.025-0.672,1.636
		c0,0.158,0.016,0.313,0.045,0.463c-0.015,0.104-0.032,0.208-0.032,0.316v8.526c0,0.879-0.716,1.594-1.596,1.594H55.391
		c0,0,0,0-0.001,0c-3.438,0.001-6.233,2.799-6.233,6.237v14.022c-0.004,0.056-0.017,0.108-0.017,0.165v7.832
		c0,0.057,0.013,0.109,0.017,0.165v0.612c0,1.282,1.038,2.322,2.32,2.322c1.281,0,2.319-1.04,2.319-2.322V20.243
		c0-0.879,0.714-1.594,1.593-1.596c0,0,0.001,0,0.002,0h5.742c-1.19,0.1-2.126,1.085-2.126,2.301c0,3.439,2.796,6.236,6.235,6.236
		h21.395c0.88,0,1.596,0.715,1.596,1.594v1.042c0,0.879-0.716,1.594-1.596,1.594H65.242c-3.438,0-6.235,2.798-6.235,6.238v0.768
		v0.001c0.001,3.438,2.797,6.235,6.235,6.235h25.295c1.281,0,2.318-1.04,2.318-2.321c0-1.282-1.037-2.32-2.318-2.32H65.242
		c-0.878,0-1.592-0.713-1.595-1.591c0-0.001,0-0.003,0-0.004v-0.768c0-0.882,0.715-1.597,1.595-1.597h21.395
		c3.439,0,6.236-2.797,6.236-6.235v-1.042c0-3.438-2.797-6.235-6.236-6.235H65.242c-0.88,0-1.596-0.716-1.596-1.595
		c0-1.215-0.937-2.201-2.125-2.301h25.116C90.076,18.647,92.873,15.85,92.873,12.412z"/>
</g>
<path fill="#D8281C" d="M13.717,6.207H4.7C2.118,6.328,1.241,5.258,1.241,3.886c0-1.185,0.496-2.34,3.357-2.321h9.12
	c1.403,0,3.026,0.296,3.026,2.321C16.744,5.678,15.12,6.207,13.717,6.207"/>
<path fill="#060001" d="M38.241,19.084c3.438,0,6.235-2.797,6.235-6.235V4.053c0-1.282-1.039-2.32-2.319-2.32
	c-1.282,0-2.32,1.039-2.32,2.32v8.796c0,0.879-0.716,1.594-1.596,1.594H25.299v-6.64c0-3.439-2.797-6.237-6.235-6.237
	c-1.281,0-2.32,1.039-2.32,2.32s1.04,2.321,2.32,2.321c0.88,0,1.596,0.715,1.596,1.596v6.64H6.918c-0.879,0-1.596-0.715-1.596-1.594
	v-2.542c0-0.778-0.721-2.072-2.32-2.077c-1.761-0.006-2.319,1.299-2.319,2.077v3.232c0,0.102,0.022,0.214,0.061,0.332
	c0.407,3.663,3.017,5.213,6.175,5.213H20.66v5.341H6.735c-0.003,0-0.006,0.001-0.01,0.001c-3.434,0.005-6.226,2.8-6.226,6.236
	v12.183c0,1.281,1.038,2.32,2.32,2.32c1.281,0,2.319-1.039,2.319-2.32V30.662c0-0.88,0.716-1.596,1.596-1.596H20.66V43.04
	c0,1.282,1.039,2.322,2.319,2.322c1.282,0,2.32-1.04,2.32-2.322V29.066h12.759c0.88,0,1.596,0.715,1.596,1.596v12.183
	c0,1.281,1.039,2.32,2.32,2.32c1.281,0,2.32-1.039,2.32-2.32V30.662c0-3.436-2.792-6.231-6.227-6.236
	c-0.003,0-0.006-0.001-0.01-0.001H25.299v-5.341H38.241z"/>
</svg>
